<?xml version="1.0" encoding="utf-8"?>
<!-- Generator: Adobe Illustrator 17.1.0, SVG Export Plug-In . SVG Version: 6.00 Build 0)  -->
<!DOCTYPE svg PUBLIC "-//W3C//DTD SVG 1.1//EN" "http://www.w3.org/Graphics/SVG/1.1/DTD/svg11.dtd">
<svg version="1.1" xmlns="http://www.w3.org/2000/svg" xmlns:xlink="http://www.w3.org/1999/xlink" x="0px" y="0px" width="16px"
	 height="16px" viewBox="0 0 16 16" enable-background="new 0 0 16 16" xml:space="preserve">
<g id="Layer_1">
	<g id="Layer_3_1_">
		<circle cx="0" cy="0" r="1"/>
		<circle cx="0" cy="8" r="1"/>
		<circle cx="8" cy="0" r="1"/>
		<circle cx="8" cy="8" r="1"/>
		<circle cx="0" cy="16" r="1"/>
		<circle cx="16" cy="0" r="1"/>
		<circle cx="16" cy="8" r="1"/>
		<circle cx="16" cy="16" r="1"/>
		<circle cx="8" cy="16" r="1"/>
	</g>
</g>
<g id="Layer_2">
	<circle cx="-16" cy="0" r="1"/>
	<circle cx="-8" cy="0" r="1"/>
	<circle cx="0" cy="0" r="1"/>
	<circle cx="8" cy="0" r="1"/>
	<circle cx="16" cy="0" r="1"/>
	<circle cx="-11.9" cy="4" r="1"/>
	<circle cx="-3.9" cy="4" r="1"/>
	<circle cx="4" cy="4" r="1"/>
	<circle cx="12" cy="4" r="1"/>
	<circle cx="20.1" cy="4" r="1"/>
	<circle cx="-11.9" cy="11.6" r="1"/>
	<circle cx="-3.9" cy="11.6" r="1"/>
	<circle cx="4" cy="12" r="1"/>
	<circle cx="12" cy="12" r="1"/>
	<circle cx="20.1" cy="11.6" r="1"/>
</g>
</svg>
