<?xml version="1.0" encoding="utf-8"?>
<!-- Generator: Adobe Illustrator 17.1.0, SVG Export Plug-In . SVG Version: 6.00 Build 0)  -->
<!DOCTYPE svg PUBLIC "-//W3C//DTD SVG 1.1//EN" "http://www.w3.org/Graphics/SVG/1.1/DTD/svg11.dtd">
<svg version="1.1" id="Layer_1" xmlns="http://www.w3.org/2000/svg" xmlns:xlink="http://www.w3.org/1999/xlink" x="0px" y="0px"
	 width="32px" height="32px" viewBox="0 0 32 32" enable-background="new 0 0 32 32" xml:space="preserve">
<g id="dots" display="none">
</g>
<g id="waves" display="none">
</g>
<g id="circles" display="none">
</g>
<g id="sketchy" display="none">
</g>
<g id="digital" display="none">
</g>
<g id="triangles" display="none">
</g>
<g>
	<path fill="#62B0F0" d="M0.6,26.1c0,0.3,0.2,0.5,0.5,0.5c0.3,0,0.4-0.3,0.4-0.5c0-0.4-0.3-0.4-0.5-0.4C0.7,25.7,0.6,25.8,0.6,26.1z
		 M1.1,23.1c0.3,0,0.5-0.2,0.5-0.5C1.5,22.3,1.4,22,1,22c-0.3,0-0.4,0.3-0.4,0.6C0.6,22.9,0.7,23.1,1.1,23.1z M1.6,29.7
		c0-0.2-0.1-0.4-0.4-0.5c-0.3-0.1-0.5,0.1-0.6,0.4C0.6,29.9,0.8,30,1,30C1.3,30.1,1.5,30,1.6,29.7z M1.6,8.3C1.5,8,1.3,7.9,1,7.9
		c-0.3,0-0.4,0.2-0.4,0.5c0,0.3,0.3,0.4,0.5,0.4C1.4,8.7,1.6,8.6,1.6,8.3z M1.1,11.4c-0.3,0-0.4,0.2-0.5,0.4c0,0.3,0.2,0.5,0.5,0.5
		c0.3,0,0.5-0.1,0.5-0.4C1.5,11.6,1.4,11.4,1.1,11.4z M3.4,17.3c0-0.3-0.1-0.5-0.4-0.6c-0.3-0.1-0.5,0.1-0.5,0.4
		c0,0.3,0.1,0.5,0.4,0.6C3.1,17.7,3.3,17.6,3.4,17.3z M2.9,20.3c-0.3,0-0.5,0.2-0.5,0.5c0,0.2,0.1,0.4,0.4,0.4
		c0.3,0,0.4-0.1,0.5-0.4C3.3,20.5,3.2,20.3,2.9,20.3z M3.3,31.4c0-0.2-0.1-0.4-0.4-0.4c-0.3,0-0.5,0.2-0.5,0.5
		c0,0.3,0.2,0.3,0.4,0.4C3.1,31.8,3.3,31.7,3.3,31.4z M3.4,27.9c0-0.3-0.2-0.5-0.5-0.5c-0.3,0-0.4,0.2-0.4,0.5
		c0,0.3,0.2,0.4,0.5,0.4C3.1,28.3,3.4,28.2,3.4,27.9z M3.4,24.3c0-0.3-0.3-0.4-0.6-0.4c-0.2,0-0.4,0.1-0.4,0.3
		c0,0.3,0.2,0.5,0.5,0.5C3.1,24.7,3.4,24.6,3.4,24.3z M3.4,13.7c-0.1-0.3-0.2-0.5-0.5-0.5c-0.3,0-0.5,0.2-0.5,0.5
		c0,0.3,0.2,0.5,0.5,0.5C3.2,14.1,3.4,14,3.4,13.7z M5.2,29.7c0-0.3-0.3-0.4-0.5-0.4c-0.2,0-0.4,0.1-0.4,0.3c0,0.3,0.2,0.5,0.5,0.5
		C4.9,30,5.1,30,5.2,29.7z M5.2,22.6c0-0.3-0.2-0.5-0.5-0.5c-0.3,0-0.5,0.2-0.5,0.5c0,0.3,0.1,0.5,0.4,0.5
		C4.9,23.1,5.1,22.9,5.2,22.6z M4.7,19.4c0.3,0,0.5-0.1,0.5-0.4c-0.1-0.3-0.2-0.5-0.5-0.4c-0.3,0-0.4,0.2-0.4,0.5
		C4.2,19.3,4.4,19.4,4.7,19.4z M8.7,29.6c0-0.3-0.3-0.4-0.6-0.4c-0.2,0-0.4,0.1-0.4,0.4C7.7,29.9,8,30,8.3,30
		C8.5,30,8.7,29.9,8.7,29.6z M7.7,26c0,0.3,0.2,0.5,0.5,0.4c0.3,0,0.5-0.1,0.5-0.4c0-0.3-0.3-0.4-0.6-0.4C7.9,25.7,7.7,25.8,7.7,26z
		 M8.3,22.9c0.3,0,0.5-0.1,0.5-0.4c0-0.3-0.3-0.4-0.6-0.4c-0.2,0-0.4,0.1-0.4,0.4C7.7,22.8,8,22.9,8.3,22.9z M10.4,31.4
		c0-0.2-0.1-0.4-0.3-0.4c-0.3,0-0.5,0.2-0.5,0.5c0,0.2,0.1,0.4,0.4,0.4C10.2,31.8,10.3,31.7,10.4,31.4z M10.5,27.8
		c0-0.3-0.3-0.4-0.5-0.4c-0.3,0-0.5,0.1-0.4,0.4c0,0.3,0.2,0.4,0.5,0.4C10.2,28.2,10.4,28.1,10.5,27.8z M10.5,20.8
		c0-0.3-0.3-0.4-0.6-0.5c-0.3,0-0.4,0.1-0.4,0.4c0,0.3,0.2,0.4,0.5,0.4C10.2,21.2,10.5,21.1,10.5,20.8z M10.5,17.2
		c0-0.3-0.3-0.4-0.5-0.5c-0.2,0-0.4,0.1-0.4,0.3c0,0.3,0.1,0.5,0.5,0.5C10.2,17.6,10.4,17.5,10.5,17.2z M10.5,13.6
		c-0.1-0.3-0.2-0.5-0.5-0.4c-0.3,0-0.4,0.2-0.4,0.5c0,0.4,0.3,0.4,0.5,0.4C10.3,14,10.5,13.9,10.5,13.6z M12.1,29.6
		c0-0.3-0.1-0.4-0.4-0.5c-0.3,0.1-0.5,0.3-0.5,0.6c0,0.3,0.2,0.4,0.4,0.4C12.1,30.2,12.2,29.9,12.1,29.6z M11.7,26.6
		c0.2,0,0.4-0.2,0.4-0.4c0-0.3-0.1-0.4-0.4-0.5c-0.2,0-0.4,0.1-0.4,0.4C11.3,26.4,11.5,26.6,11.7,26.6z M12.3,22.6
		c0-0.3-0.3-0.4-0.5-0.5c-0.3,0-0.5,0.1-0.5,0.4c0,0.3,0.2,0.4,0.5,0.4C12,22.9,12.2,22.9,12.3,22.6z M13.1,20.7
		c0,0.3,0.1,0.4,0.4,0.5c0.3,0,0.5-0.1,0.5-0.4c0.1-0.3-0.2-0.4-0.5-0.5C13.2,20.2,13.1,20.4,13.1,20.7z M13.1,17.3
		c0,0.3,0.2,0.4,0.5,0.4c0.2,0,0.3-0.2,0.4-0.4c0-0.3-0.2-0.4-0.5-0.4C13.2,16.9,13.1,17,13.1,17.3z M14,13.6c0-0.3-0.3-0.5-0.5-0.5
		c-0.3,0-0.4,0.2-0.4,0.5c0,0.3,0.1,0.5,0.5,0.5C13.8,14,14.1,13.9,14,13.6z M13.1,24.3c0,0.3,0.1,0.5,0.4,0.6
		c0.3,0,0.4-0.2,0.5-0.5c0-0.3-0.2-0.4-0.5-0.5C13.2,23.8,13.1,24,13.1,24.3z M14,31.4c0-0.3-0.3-0.4-0.5-0.4
		c-0.3,0-0.5,0.1-0.5,0.4c0,0.3,0.2,0.4,0.5,0.4C13.8,31.8,14,31.7,14,31.4z M14,27.9c-0.1-0.3-0.2-0.5-0.5-0.5
		c-0.3,0-0.4,0.2-0.4,0.4c0,0.3,0.2,0.5,0.5,0.4C13.9,28.3,14,28.1,14,27.9z M15.8,29.6c-0.1-0.3-0.3-0.5-0.6-0.5
		c-0.3,0-0.4,0.2-0.4,0.5c0,0.3,0.2,0.4,0.5,0.4C15.7,30,15.8,29.9,15.8,29.6z M17.6,31.5c0-0.4-0.3-0.5-0.6-0.5
		c-0.3,0-0.4,0.1-0.4,0.4c0,0.3,0.2,0.6,0.5,0.5C17.4,31.9,17.6,31.8,17.6,31.5z M17.6,27.9c0-0.4-0.3-0.4-0.6-0.5
		c-0.3,0-0.4,0.2-0.4,0.4c0,0.3,0.2,0.5,0.6,0.5C17.4,28.4,17.6,28.2,17.6,27.9z M17.1,24.7c0.2,0,0.5-0.1,0.5-0.4
		c0-0.3-0.2-0.5-0.5-0.5c-0.3,0-0.4,0.1-0.5,0.4C16.6,24.6,16.8,24.7,17.1,24.7z M18.8,16c0.3,0,0.6-0.2,0.6-0.5
		c0-0.3-0.2-0.5-0.5-0.5c-0.3,0-0.6,0.2-0.6,0.5C18.3,15.8,18.5,16,18.8,16z M19.3,22.4c0-0.3-0.3-0.4-0.6-0.5
		c-0.3,0.1-0.4,0.3-0.4,0.6c0,0.3,0.1,0.6,0.5,0.5C19.2,23,19.4,22.8,19.3,22.4z M18.9,25.6c-0.3,0-0.5,0.2-0.5,0.5
		c0,0.3,0.1,0.5,0.4,0.6c0.3,0,0.5-0.2,0.6-0.5C19.4,25.9,19.2,25.6,18.9,25.6z M18.9,29.2c-0.3,0-0.5,0.1-0.5,0.4
		c0,0.3,0.2,0.6,0.5,0.6c0.3,0,0.4-0.2,0.5-0.4C19.4,29.4,19.1,29.3,18.9,29.2z M19.4,19c0-0.4-0.3-0.4-0.6-0.5
		c-0.3,0-0.4,0.2-0.4,0.4c0,0.3,0.2,0.5,0.6,0.5C19.2,19.5,19.4,19.3,19.4,19z M22.9,29.7c0-0.3-0.2-0.5-0.6-0.5
		c-0.3,0.1-0.4,0.3-0.4,0.6c0,0.3,0.2,0.5,0.5,0.5C22.7,30.1,22.9,30,22.9,29.7z M22.9,26.1c0-0.3-0.2-0.5-0.6-0.5
		c-0.3,0-0.4,0.2-0.4,0.5c0,0.3,0.1,0.5,0.5,0.5C22.7,26.6,22.9,26.4,22.9,26.1z M22.9,22.6c0-0.3-0.2-0.5-0.5-0.5
		c-0.3,0-0.5,0.2-0.5,0.5c0,0.3,0.1,0.5,0.4,0.5C22.7,23.1,22.9,22.9,22.9,22.6z M22.4,16c0.3,0,0.5-0.2,0.6-0.5
		c0-0.4-0.2-0.5-0.6-0.6c-0.3,0-0.5,0.2-0.5,0.6C21.8,15.8,22,16,22.4,16z M23,19c0-0.3-0.3-0.4-0.5-0.5c-0.3,0-0.5,0.1-0.5,0.4
		c0,0.3,0.1,0.5,0.5,0.6C22.7,19.5,22.9,19.3,23,19z M24.7,31.5c0-0.4-0.2-0.5-0.5-0.6c-0.3,0-0.6,0.1-0.6,0.5
		c0,0.4,0.3,0.5,0.6,0.5C24.5,32,24.7,31.8,24.7,31.5z M24.7,13.7c0-0.3-0.2-0.5-0.6-0.5c-0.3,0.1-0.5,0.3-0.5,0.6
		c0,0.3,0.2,0.5,0.6,0.4C24.5,14.1,24.7,14,24.7,13.7z M24.2,16.7c-0.3,0-0.4,0.2-0.4,0.5c0,0.4,0.3,0.4,0.5,0.4
		c0.3,0,0.4-0.1,0.4-0.4C24.7,16.9,24.5,16.7,24.2,16.7z M23.7,27.9c0,0.3,0.1,0.6,0.4,0.5c0.3,0,0.5-0.1,0.6-0.5
		c0-0.3-0.2-0.5-0.5-0.5C23.9,27.3,23.7,27.6,23.7,27.9z M24.2,24.7c0.2,0,0.5-0.1,0.5-0.4c0-0.3-0.2-0.5-0.5-0.5
		c-0.3,0-0.5,0.2-0.5,0.5C23.7,24.6,24,24.7,24.2,24.7z M24.7,20.8c0-0.3-0.2-0.6-0.5-0.6c-0.4,0-0.5,0.3-0.5,0.6
		c0,0.3,0.1,0.5,0.4,0.5C24.5,21.3,24.7,21.1,24.7,20.8z M26.5,29.7c0-0.3-0.2-0.5-0.6-0.6c-0.3,0-0.5,0.2-0.5,0.6
		c0,0.3,0.2,0.5,0.5,0.5C26.2,30.2,26.5,30.1,26.5,29.7z M26.5,22.5c-0.1-0.3-0.3-0.5-0.6-0.5c-0.3,0-0.4,0.3-0.4,0.6
		c0,0.3,0.2,0.5,0.5,0.4C26.3,23,26.5,22.8,26.5,22.5z M26,25.6c-0.3,0-0.5,0.2-0.5,0.5c0,0.3,0.2,0.5,0.5,0.5
		c0.3,0,0.5-0.2,0.5-0.5C26.4,25.8,26.3,25.6,26,25.6z M28.3,10.1c-0.1-0.3-0.3-0.4-0.6-0.4c-0.3,0-0.4,0.2-0.4,0.5
		c0,0.3,0.2,0.4,0.5,0.4C28.1,10.5,28.3,10.4,28.3,10.1z M27.8,13.2c-0.3,0-0.5,0.2-0.5,0.5c0,0.3,0.1,0.5,0.5,0.5
		c0.3,0,0.5-0.2,0.5-0.5C28.2,13.4,28.1,13.2,27.8,13.2z M28.3,6.5c0-0.3-0.3-0.4-0.6-0.4c-0.3,0-0.4,0.2-0.4,0.5
		c0,0.3,0.1,0.6,0.5,0.5C28,7,28.2,6.8,28.3,6.5z M27.7,17.7c0.3,0,0.5-0.1,0.6-0.5c0-0.3-0.2-0.5-0.5-0.5c-0.3,0-0.5,0.2-0.5,0.5
		C27.3,17.5,27.4,17.7,27.7,17.7z M27.3,27.9c0,0.3,0.1,0.5,0.4,0.5c0.3,0,0.5-0.2,0.5-0.5c0-0.3-0.2-0.5-0.5-0.5
		C27.5,27.4,27.3,27.6,27.3,27.9z M27.8,24.8c0.3-0.1,0.5-0.2,0.5-0.5c0-0.3-0.2-0.5-0.5-0.5c-0.3,0-0.5,0.2-0.5,0.5
		C27.3,24.7,27.4,24.8,27.8,24.8z M28.3,31.5c0-0.3-0.2-0.5-0.5-0.5c-0.3,0-0.5,0.2-0.5,0.5c0,0.3,0.1,0.5,0.5,0.5
		C28,31.9,28.3,31.8,28.3,31.5z M28.3,20.8c0-0.3-0.2-0.5-0.5-0.5c-0.3,0-0.4,0.2-0.5,0.4c0,0.3,0.1,0.4,0.4,0.4
		C28,21.2,28.2,21.1,28.3,20.8z M29.1,8.3c0,0.3,0.2,0.4,0.5,0.4c0.3,0,0.5-0.1,0.5-0.4c0-0.3-0.3-0.4-0.5-0.5
		C29.2,7.8,29.1,8,29.1,8.3z M29.5,5.1c0.3,0,0.4-0.2,0.4-0.4c0-0.2-0.1-0.4-0.3-0.4c-0.3,0-0.5,0.2-0.5,0.5
		C29.1,5,29.3,5.1,29.5,5.1z M29.1,11.8c0,0.3,0.2,0.4,0.5,0.4c0.3,0,0.5-0.1,0.5-0.4c0-0.3-0.3-0.4-0.5-0.5
		C29.2,11.4,29.1,11.6,29.1,11.8z M29.5,22.9c0.3,0,0.5-0.1,0.5-0.4c0-0.3-0.2-0.5-0.4-0.5c-0.3,0-0.5,0.1-0.6,0.4
		C29.1,22.8,29.3,22.9,29.5,22.9z M29.5,19.5c0.3,0,0.5-0.2,0.5-0.5c-0.1-0.3-0.2-0.5-0.5-0.5c-0.3,0-0.5,0.2-0.5,0.5
		C29.1,19.3,29.2,19.5,29.5,19.5z M29.1,15.5c0,0.3,0.2,0.5,0.5,0.5c0.3,0,0.5-0.2,0.5-0.5c0-0.3-0.2-0.5-0.5-0.5
		C29.2,15,29.1,15.2,29.1,15.5z M30,29.6c-0.1-0.3-0.2-0.5-0.5-0.5c-0.3,0-0.4,0.2-0.4,0.5c0,0.3,0.2,0.4,0.5,0.4
		C29.9,30,30,29.9,30,29.6z M31.8,24.3c0-0.3-0.2-0.5-0.4-0.5c-0.3,0-0.5,0.1-0.6,0.4c0,0.3,0.2,0.4,0.4,0.4
		C31.6,24.7,31.8,24.6,31.8,24.3z M31.3,27.4c-0.3,0-0.4,0.2-0.4,0.5c0,0.3,0.1,0.5,0.4,0.5c0.3,0,0.5-0.2,0.5-0.5
		C31.8,27.6,31.6,27.4,31.3,27.4z M31.8,20.8c-0.1-0.3-0.2-0.5-0.6-0.5c-0.3,0-0.4,0.2-0.4,0.5c0,0.3,0.2,0.6,0.6,0.6
		C31.7,21.3,31.8,21.1,31.8,20.8z M30.9,10.1c0,0.3,0.2,0.4,0.5,0.4c0.3,0,0.5-0.1,0.5-0.4c-0.1-0.3-0.2-0.5-0.6-0.5
		C31,9.6,30.8,9.8,30.9,10.1z M31.3,6.9c0.3,0,0.5-0.1,0.5-0.4c0-0.3-0.2-0.5-0.5-0.5c-0.3,0-0.4,0.1-0.5,0.4
		C30.8,6.8,31,6.9,31.3,6.9z M30.9,13.7c0,0.3,0.3,0.4,0.5,0.3c0.3,0,0.4-0.2,0.4-0.5c-0.1-0.2-0.2-0.4-0.5-0.4
		C31,13.2,30.9,13.4,30.9,13.7z M30.8,3c0,0.3,0.1,0.5,0.4,0.5c0.3,0,0.5-0.2,0.6-0.5c0-0.3-0.2-0.5-0.5-0.5C31,2.5,30.8,2.7,30.8,3
		z M31.3,17.7c0.3,0,0.5-0.2,0.6-0.5c0-0.3-0.1-0.5-0.4-0.6c-0.3,0-0.5,0.1-0.5,0.4C30.8,17.5,30.9,17.7,31.3,17.7z M30.7,31.5
		c0,0.3,0.2,0.5,0.5,0.5c0.4,0,0.6-0.2,0.6-0.6c0-0.3-0.2-0.5-0.5-0.5C31,30.9,30.7,31.1,30.7,31.5z M30.1,26.1
		c0-0.3-0.2-0.5-0.5-0.5c-0.3,0-0.5,0.2-0.5,0.5c0,0.3,0.1,0.5,0.4,0.5C29.8,26.6,30,26.5,30.1,26.1z M29.1,1.2
		c0,0.3,0.1,0.5,0.4,0.5c0.3,0,0.5-0.2,0.6-0.6c0-0.4-0.3-0.5-0.6-0.5C29.1,0.6,29.1,0.9,29.1,1.2z M27.2,3c0,0.3,0.3,0.5,0.6,0.5
		c0.3,0,0.5-0.2,0.5-0.5c-0.1-0.4-0.3-0.5-0.6-0.5C27.4,2.5,27.2,2.6,27.2,3z M26.5,11.8c-0.1-0.3-0.2-0.5-0.5-0.5
		c-0.3,0-0.5,0.2-0.5,0.5c0,0.3,0.2,0.5,0.5,0.5C26.3,12.4,26.5,12.2,26.5,11.8z M26,15c-0.3,0-0.5,0.2-0.5,0.5
		c0,0.3,0.2,0.4,0.5,0.5c0.3,0,0.4-0.2,0.4-0.5C26.4,15.2,26.3,15,26,15z M26,8.7c0.3,0,0.5-0.1,0.5-0.4c0-0.3-0.3-0.4-0.5-0.5
		c-0.3,0-0.5,0.1-0.4,0.4C25.5,8.6,25.7,8.7,26,8.7z M26.5,4.7c-0.1-0.3-0.3-0.4-0.6-0.4c-0.3,0-0.4,0.2-0.4,0.5
		c0,0.3,0.2,0.4,0.5,0.4C26.3,5.1,26.5,5,26.5,4.7z M25.4,1.2c0,0.3,0.2,0.5,0.5,0.5c0.3,0,0.5-0.2,0.6-0.5
		c-0.1-0.3-0.3-0.5-0.6-0.5C25.6,0.7,25.4,0.9,25.4,1.2z M25.4,19.1c0,0.3,0.2,0.5,0.5,0.5c0.3,0,0.6-0.2,0.6-0.6
		c0-0.3-0.2-0.5-0.5-0.5C25.7,18.5,25.4,18.7,25.4,19.1z M23.7,2.9c0,0.3,0.2,0.5,0.5,0.5c0.3,0,0.5-0.1,0.5-0.4
		c0-0.3-0.3-0.4-0.6-0.4C23.9,2.6,23.7,2.7,23.7,2.9z M24.2,6.1c-0.3,0-0.4,0.2-0.5,0.4c0,0.3,0.1,0.4,0.4,0.4c0.3,0,0.5,0,0.6-0.4
		C24.7,6.2,24.5,6.1,24.2,6.1z M23.6,10.2c0.1,0.3,0.3,0.5,0.7,0.4c0.3,0,0.5-0.2,0.5-0.6c-0.1-0.3-0.3-0.5-0.6-0.5
		C23.8,9.6,23.6,9.8,23.6,10.2z M22,1.2c0,0.3,0.2,0.4,0.5,0.4c0.3,0,0.5-0.1,0.5-0.4c-0.1-0.2-0.2-0.5-0.5-0.5
		C22.1,0.7,22,0.9,22,1.2z M22.5,4.3c-0.3,0-0.4,0.1-0.5,0.4c0,0.3,0.1,0.5,0.4,0.5c0.2,0,0.5-0.1,0.5-0.4
		C22.9,4.5,22.7,4.3,22.5,4.3z M22,8.4c0,0.3,0.2,0.4,0.4,0.4c0.3,0,0.4-0.3,0.4-0.5c0-0.3-0.1-0.4-0.4-0.5C22.1,7.9,22,8.1,22,8.4z
		 M21.8,11.9c0,0.3,0.3,0.4,0.6,0.4c0.3,0,0.6-0.2,0.6-0.5c0-0.3-0.3-0.5-0.6-0.4C22.1,11.4,21.8,11.5,21.8,11.9z M20.2,17.2
		c0,0.3,0.1,0.5,0.4,0.6c0.3,0,0.5-0.1,0.6-0.4c0-0.3-0.2-0.5-0.5-0.6C20.3,16.7,20.2,16.9,20.2,17.2z M20.6,14.2
		c0.3,0,0.5-0.2,0.6-0.4c0-0.3-0.2-0.5-0.5-0.6c-0.3,0-0.4,0.2-0.4,0.5C20.2,13.9,20.3,14.2,20.6,14.2z M21.2,6.6
		c0-0.3-0.2-0.5-0.5-0.5c-0.3,0-0.5,0.2-0.5,0.5c0,0.3,0.2,0.4,0.5,0.4C20.9,6.9,21.2,6.8,21.2,6.6z M20.2,10.1
		c0,0.3,0.2,0.5,0.5,0.5c0.3-0.1,0.5-0.2,0.5-0.5c0-0.3-0.2-0.5-0.5-0.5C20.3,9.6,20.2,9.8,20.2,10.1z M20.6,21.3
		c0.3,0,0.4-0.2,0.5-0.5c0-0.3-0.2-0.4-0.5-0.4c-0.3,0-0.5,0-0.5,0.3C20.1,21,20.3,21.2,20.6,21.3z M20.6,24.8
		c0.3,0,0.5-0.2,0.5-0.5c0-0.2-0.1-0.4-0.4-0.5c-0.3,0-0.5,0.2-0.5,0.5C20.1,24.6,20.3,24.8,20.6,24.8z M20.2,27.9
		c0,0.3,0.2,0.5,0.5,0.5c0.3,0,0.5-0.2,0.5-0.5c-0.1-0.3-0.2-0.5-0.5-0.5C20.3,27.4,20.2,27.6,20.2,27.9z M20.6,3.5
		c0.3,0,0.5-0.1,0.6-0.5c0-0.3-0.2-0.5-0.5-0.5c-0.3,0-0.5,0.2-0.5,0.5C20.1,3.3,20.3,3.5,20.6,3.5z M20.2,31.4
		c0,0.3,0.1,0.5,0.5,0.5c0.3,0,0.5-0.2,0.5-0.5c0-0.3-0.2-0.5-0.5-0.5C20.3,30.9,20.2,31.1,20.2,31.4z M18.4,1.3
		c0,0.3,0.1,0.5,0.4,0.5c0.3,0,0.4-0.2,0.4-0.5c0-0.3-0.1-0.4-0.4-0.5C18.5,0.9,18.4,1,18.4,1.3z M18.8,5.3c0.3,0,0.5-0.1,0.6-0.5
		c0-0.3-0.2-0.5-0.5-0.5c-0.3,0-0.5,0.2-0.5,0.5C18.4,5.1,18.5,5.3,18.8,5.3z M18.4,8.4c0,0.3,0.2,0.5,0.5,0.5
		c0.3-0.1,0.4-0.3,0.5-0.6c-0.1-0.3-0.3-0.4-0.6-0.4C18.5,7.9,18.4,8.1,18.4,8.4z M18.3,11.9c0,0.4,0.2,0.5,0.6,0.5
		c0.3,0,0.5-0.2,0.6-0.6c0-0.4-0.3-0.5-0.6-0.5C18.4,11.3,18.3,11.6,18.3,11.9z M16.6,3c0,0.3,0.2,0.4,0.5,0.4
		c0.3,0,0.5-0.1,0.5-0.4c0-0.3-0.2-0.5-0.5-0.5C16.8,2.5,16.6,2.7,16.6,3z M16.5,6.6c0,0.4,0.2,0.5,0.6,0.5c0.3,0,0.5-0.2,0.5-0.5
		C17.5,6.2,17.4,6,17,6C16.7,6,16.5,6.3,16.5,6.6z M17.1,9.6c-0.3,0-0.5,0.2-0.5,0.5c0,0.3,0.2,0.5,0.5,0.5c0.3,0,0.5-0.2,0.5-0.5
		C17.5,9.8,17.4,9.6,17.1,9.6z M16.5,13.6c0,0.4,0.3,0.5,0.6,0.6c0.4,0,0.5-0.2,0.6-0.6c0-0.3-0.2-0.5-0.5-0.5
		C16.8,13.2,16.5,13.3,16.5,13.6z M17,16.7c-0.3,0-0.4,0.3-0.4,0.6c0,0.3,0.2,0.5,0.5,0.4c0.3,0,0.5-0.2,0.5-0.5
		C17.5,16.9,17.3,16.7,17,16.7z M16.5,20.7c0,0.4,0.3,0.5,0.6,0.6c0.3,0,0.5-0.1,0.5-0.5c0-0.4-0.3-0.6-0.6-0.6
		C16.7,20.3,16.5,20.4,16.5,20.7z M14.8,15.4c0,0.3,0.2,0.5,0.5,0.6c0.2,0,0.5-0.2,0.5-0.5c0-0.3-0.3-0.4-0.5-0.5
		C15,15,14.9,15.1,14.8,15.4z M15.3,12.4c0.3,0,0.5-0.1,0.6-0.4c0-0.3-0.1-0.5-0.4-0.6c-0.4,0-0.5,0.2-0.5,0.5
		C14.8,12.2,15,12.4,15.3,12.4z M14.9,1.2c0,0.3,0.2,0.4,0.4,0.3c0.3,0,0.4-0.2,0.4-0.4c0-0.2-0.1-0.4-0.4-0.4
		C15,0.7,14.9,0.9,14.9,1.2z M14.8,4.8c0,0.3,0.1,0.5,0.5,0.5c0.3,0,0.5-0.2,0.5-0.5c0-0.3-0.2-0.5-0.6-0.5
		C14.9,4.3,14.8,4.5,14.8,4.8z M15.3,8.8c0.3,0,0.5-0.1,0.6-0.5c0-0.3-0.2-0.5-0.5-0.5c-0.3,0-0.5,0.2-0.5,0.5
		C14.8,8.6,14.9,8.8,15.3,8.8z M14.8,19c0,0.3,0.1,0.5,0.5,0.5c0.4,0,0.5-0.3,0.6-0.6c0-0.4-0.3-0.5-0.6-0.5
		C14.9,18.4,14.8,18.7,14.8,19z M15.3,22.1c-0.3,0-0.4,0.2-0.4,0.4c0,0.3,0.2,0.4,0.5,0.4c0.3,0,0.4-0.1,0.5-0.4
		C15.8,22.2,15.6,22,15.3,22.1z M14.7,26.1c0,0.3,0.2,0.5,0.5,0.5c0.3,0,0.6-0.1,0.6-0.5c0-0.3-0.2-0.5-0.5-0.5
		C15,25.7,14.7,25.7,14.7,26.1z M14,10.1c0-0.3-0.3-0.4-0.5-0.4c-0.2,0-0.4,0.1-0.4,0.3c0,0.3,0.2,0.5,0.5,0.5
		C13.8,10.5,14,10.4,14,10.1z M14,6.4C14,6.1,13.7,6,13.5,6C13.1,6,13,6.3,13,6.5c0,0.3,0.1,0.5,0.5,0.5C13.8,7,14,6.8,14,6.4z
		 M13,2.9c0,0.3,0.2,0.5,0.6,0.6c0.3,0,0.4-0.2,0.4-0.5c0-0.3-0.2-0.5-0.5-0.5C13.2,2.5,13,2.6,13,2.9z M12.3,11.9
		c0-0.3-0.3-0.4-0.6-0.4c-0.3,0-0.5,0.1-0.4,0.4c0,0.3,0.2,0.5,0.5,0.6C12.1,12.3,12.3,12.2,12.3,11.9z M11.7,14.9
		c-0.3,0-0.4,0.2-0.4,0.4c0,0.3,0.1,0.6,0.4,0.6c0.3,0,0.5-0.2,0.5-0.5C12.2,15.2,12.1,14.9,11.7,14.9z M12.3,8.3
		C12.2,8,12,7.9,11.6,7.9c-0.3,0-0.4,0.2-0.4,0.5c0,0.3,0.2,0.5,0.5,0.5C12.1,8.8,12.3,8.6,12.3,8.3z M11.3,1.3
		c0,0.3,0.2,0.5,0.5,0.5c0.3,0,0.5-0.2,0.5-0.5c0-0.3-0.2-0.5-0.5-0.5C11.4,0.7,11.3,0.9,11.3,1.3z M11.2,4.7c0,0.3,0.2,0.4,0.5,0.4
		c0.3,0,0.5-0.1,0.6-0.5c0-0.3-0.3-0.5-0.5-0.4C11.4,4.3,11.2,4.4,11.2,4.7z M11.7,19.5c0.3,0,0.6-0.1,0.6-0.5
		c0-0.3-0.2-0.5-0.6-0.5c-0.3,0-0.6,0.2-0.6,0.5C11.1,19.4,11.3,19.5,11.7,19.5z M10.5,10.1c-0.1-0.3-0.2-0.5-0.5-0.4
		c-0.3,0-0.4,0.2-0.4,0.5c0,0.4,0.3,0.4,0.5,0.4C10.3,10.5,10.5,10.3,10.5,10.1z M10.5,6.6c0-0.2-0.2-0.5-0.5-0.5
		C9.7,6,9.5,6.3,9.5,6.5c0,0.3,0.1,0.5,0.4,0.5C10.2,7,10.4,6.9,10.5,6.6z M9.9,3.5c0.3,0,0.5-0.1,0.6-0.5c0-0.3-0.2-0.5-0.5-0.5
		C9.7,2.4,9.5,2.7,9.5,3C9.5,3.3,9.6,3.5,9.9,3.5z M9.5,24.3c0,0.3,0.1,0.5,0.5,0.6c0.3,0,0.4-0.2,0.5-0.5c0-0.3-0.2-0.4-0.5-0.4
		C9.7,23.8,9.5,24,9.5,24.3z M8.7,19c-0.1-0.3-0.3-0.4-0.6-0.4c-0.3,0-0.4,0.1-0.4,0.4c0,0.3,0.2,0.4,0.5,0.4
		C8.5,19.4,8.7,19.3,8.7,19z M8.1,7.7C7.8,7.7,7.7,8,7.7,8.2c0,0.3,0.2,0.5,0.5,0.5c0.3,0,0.5-0.2,0.5-0.4C8.7,7.9,8.4,7.8,8.1,7.7z
		 M8.6,4.8c0-0.3-0.1-0.5-0.4-0.5c-0.3,0-0.5,0.2-0.5,0.5c0,0.3,0.1,0.5,0.4,0.5C8.5,5.3,8.6,5.1,8.6,4.8z M8.2,1.7
		c0.3,0,0.4-0.2,0.4-0.5c0-0.2-0.1-0.5-0.4-0.5c-0.3,0-0.5,0.2-0.5,0.5C7.7,1.5,7.9,1.7,8.2,1.7z M7.7,11.8c0,0.3,0.1,0.5,0.5,0.6
		c0.3,0,0.4-0.2,0.5-0.5c0-0.3-0.2-0.4-0.5-0.4C7.9,11.4,7.7,11.5,7.7,11.8z M7.6,15.5c0,0.3,0.2,0.5,0.5,0.5c0.3,0,0.6-0.2,0.6-0.5
		c0-0.3-0.2-0.5-0.5-0.5C7.9,14.9,7.6,15.1,7.6,15.5z M6.9,24.3c0-0.3-0.3-0.4-0.5-0.5c-0.2,0-0.4,0.1-0.4,0.3
		c0,0.3,0.2,0.5,0.5,0.5C6.7,24.7,6.9,24.6,6.9,24.3z M6.5,27.4C6.2,27.4,6,27.5,6,27.8c0,0.3,0.2,0.4,0.4,0.4
		c0.3,0,0.5-0.1,0.5-0.4C6.9,27.6,6.8,27.4,6.5,27.4z M6.3,14.1c0.2,0,0.4-0.1,0.5-0.3c0-0.3-0.1-0.5-0.4-0.5c-0.2,0-0.4,0-0.5,0.3
		C5.9,13.9,6.1,14.1,6.3,14.1z M6.4,10.5c0.3,0,0.5-0.1,0.5-0.4c0-0.3-0.2-0.5-0.5-0.5C6.1,9.6,6,9.8,6,10.1
		C6,10.4,6.2,10.5,6.4,10.5z M6,20.8c0,0.3,0.2,0.4,0.5,0.4c0.3,0,0.4-0.2,0.4-0.4c0-0.3-0.2-0.4-0.5-0.4C6.1,20.4,5.9,20.6,6,20.8z
		 M6.9,17.2c-0.1-0.3-0.2-0.5-0.5-0.5c-0.3,0-0.4,0.2-0.4,0.5c0,0.3,0.2,0.4,0.5,0.4C6.7,17.6,6.9,17.5,6.9,17.2z M6,2.9
		c0,0.3,0.2,0.4,0.5,0.4c0.3,0,0.4-0.1,0.4-0.4C6.9,2.7,6.7,2.5,6.4,2.5C6.1,2.5,6,2.7,6,2.9z M6.4,7.1c0.3,0,0.5-0.2,0.5-0.5
		c0-0.3-0.2-0.4-0.5-0.5C6.1,6.1,6,6.2,5.9,6.5C5.9,6.8,6,7.1,6.4,7.1z M5.9,31.4c0,0.3,0.2,0.5,0.5,0.5c0.3,0,0.5-0.2,0.5-0.5
		C6.9,31.1,6.6,31,6.3,31C6.1,31,5.9,31.2,5.9,31.4z M5.2,15.4C5.1,15.2,5,14.9,4.6,15c-0.3,0-0.5,0.2-0.5,0.5
		c0,0.3,0.2,0.5,0.5,0.5C4.9,15.9,5.1,15.8,5.2,15.4z M5.2,11.8c0-0.3-0.3-0.4-0.6-0.4c-0.2,0-0.4,0.1-0.4,0.4
		c0,0.3,0.2,0.4,0.6,0.4C5,12.2,5.2,12.1,5.2,11.8z M4.2,1.2c0,0.3,0.2,0.4,0.5,0.4c0.2,0,0.4,0,0.4-0.4C5.1,1,5,0.7,4.7,0.7
		C4.3,0.6,4.2,0.9,4.2,1.2z M4.7,4.3c-0.3,0-0.4,0.1-0.5,0.4c0,0.3,0.1,0.5,0.5,0.5c0.3,0,0.5-0.1,0.5-0.4C5.1,4.5,5,4.3,4.7,4.3z
		 M4.2,8.3c0,0.3,0.2,0.5,0.5,0.5C5,8.8,5.2,8.6,5.1,8.3c0-0.3-0.3-0.4-0.6-0.4C4.3,7.9,4.1,8.1,4.2,8.3z M4.2,26.1
		c0,0.3,0.1,0.5,0.4,0.6c0.3,0,0.6-0.2,0.6-0.5c0-0.3-0.3-0.4-0.5-0.4C4.3,25.7,4.2,25.8,4.2,26.1z M3.4,10.1c0-0.3-0.2-0.5-0.5-0.5
		c-0.3,0-0.5,0.2-0.5,0.5c0,0.3,0.1,0.5,0.4,0.5C3.1,10.6,3.3,10.5,3.4,10.1z M2.4,3c0,0.3,0.1,0.5,0.4,0.5c0.3,0,0.4-0.2,0.5-0.5
		c0-0.4-0.3-0.4-0.5-0.4C2.5,2.5,2.4,2.7,2.4,3z M2.2,6.6c0.1,0.3,0.2,0.5,0.6,0.5c0.3,0,0.5-0.2,0.5-0.5c0-0.4-0.3-0.5-0.6-0.5
		C2.5,6.1,2.3,6.2,2.2,6.6z M0.6,1.1c0,0.3,0.1,0.5,0.5,0.5c0.3,0,0.5-0.1,0.5-0.5c0-0.3-0.3-0.5-0.5-0.5C0.7,0.6,0.6,0.8,0.6,1.1z
		 M0.6,4.8c0,0.3,0.2,0.5,0.5,0.5c0.3,0,0.5-0.2,0.5-0.5C1.5,4.5,1.4,4.3,1.1,4.3C0.8,4.3,0.6,4.5,0.6,4.8z M1.1,15.9
		c0.3,0,0.5-0.1,0.5-0.5c0-0.3-0.2-0.5-0.5-0.5c-0.3,0-0.5,0.2-0.5,0.5C0.6,15.7,0.7,15.9,1.1,15.9z M0.5,19.1
		c0,0.3,0.3,0.4,0.6,0.4c0.3,0,0.4-0.2,0.4-0.5c0-0.3-0.1-0.5-0.5-0.5C0.7,18.6,0.5,18.8,0.5,19.1z"/>
	<path fill="#62B0F0" d="M25.9,22c-0.3,0-0.4,0.3-0.4,0.6c0,0.3,0.2,0.5,0.5,0.4c0.3-0.1,0.5-0.2,0.5-0.6C26.4,22.2,26.2,22,25.9,22
		z"/>
	<path fill="#62B0F0" d="M20.6,31.9c0.3,0,0.5-0.2,0.5-0.5c0-0.3-0.2-0.5-0.5-0.5c-0.3,0-0.4,0.2-0.5,0.5
		C20.2,31.7,20.3,32,20.6,31.9z"/>
	<path fill="#62B0F0" d="M17.1,7.1c0.3,0,0.5-0.2,0.5-0.5C17.5,6.2,17.4,6,17,6c-0.3,0-0.5,0.2-0.5,0.5C16.5,6.9,16.8,7.1,17.1,7.1z
		"/>
	<path fill="#62B0F0" d="M17,16.7c-0.3,0-0.4,0.3-0.4,0.6c0,0.3,0.2,0.5,0.5,0.4c0.3,0,0.5-0.2,0.5-0.5C17.5,16.9,17.3,16.7,17,16.7
		z"/>
	<path fill="#62B0F0" d="M17.1,14.2c0.4,0,0.5-0.2,0.6-0.6c0-0.3-0.2-0.5-0.5-0.5c-0.3,0-0.6,0.1-0.6,0.5
		C16.5,14,16.7,14.1,17.1,14.2z"/>
	<path fill="#62B0F0" d="M17.1,21.3c0.3,0,0.5-0.1,0.5-0.5c0-0.4-0.3-0.6-0.6-0.6c-0.3,0-0.5,0.2-0.5,0.5
		C16.5,21.2,16.8,21.2,17.1,21.3z"/>
	<path fill="#62B0F0" d="M17.1,3.4c0.3,0,0.5-0.1,0.5-0.4c0-0.3-0.2-0.5-0.5-0.5c-0.3,0-0.5,0.2-0.5,0.5C16.7,3.3,16.9,3.4,17.1,3.4
		z"/>
	<path fill="#62B0F0" d="M18.8,1.8c0.3,0,0.4-0.2,0.4-0.5c0-0.3-0.1-0.4-0.4-0.5c-0.3,0-0.4,0.2-0.4,0.4C18.4,1.6,18.5,1.8,18.8,1.8
		z"/>
	<path fill="#62B0F0" d="M18.8,12.4c0.3,0,0.5-0.2,0.6-0.6c0-0.4-0.3-0.5-0.6-0.5c-0.4,0-0.5,0.3-0.5,0.6
		C18.2,12.3,18.5,12.4,18.8,12.4z"/>
	<path fill="#62B0F0" d="M18.8,5.3c0.3,0,0.5-0.1,0.6-0.5c0-0.3-0.2-0.5-0.5-0.5c-0.3,0-0.5,0.2-0.5,0.5C18.4,5.1,18.5,5.3,18.8,5.3
		z"/>
	<path fill="#62B0F0" d="M18.9,8.8c0.3-0.1,0.4-0.3,0.5-0.6c-0.1-0.3-0.3-0.4-0.6-0.4c-0.3,0-0.4,0.2-0.4,0.5
		C18.4,8.7,18.5,8.9,18.9,8.8z"/>
	<path fill="#62B0F0" d="M17.1,9.6c-0.3,0-0.5,0.2-0.5,0.5c0,0.3,0.2,0.5,0.5,0.5c0.3,0,0.5-0.2,0.5-0.5C17.5,9.8,17.4,9.6,17.1,9.6
		z"/>
	<path fill="#62B0F0" d="M15.4,16c0.2,0,0.5-0.2,0.5-0.5c0-0.3-0.3-0.4-0.5-0.5c-0.3,0-0.5,0.1-0.5,0.4C14.8,15.7,15,15.9,15.4,16z"
		/>
	<path fill="#62B0F0" d="M15.2,26.6c0.3,0,0.6-0.1,0.6-0.5c0-0.3-0.2-0.5-0.5-0.5c-0.3,0-0.6,0-0.6,0.4
		C14.7,26.4,14.9,26.6,15.2,26.6z"/>
	<path fill="#62B0F0" d="M13.5,9.7c-0.2,0-0.4,0.1-0.4,0.3c0,0.3,0.2,0.5,0.5,0.5c0.2,0,0.4-0.1,0.4-0.4C14,9.8,13.8,9.7,13.5,9.7z"
		/>
	<path fill="#62B0F0" d="M15.3,19.5c0.4,0,0.5-0.3,0.6-0.6c0-0.4-0.3-0.5-0.6-0.5c-0.4,0-0.5,0.3-0.4,0.6
		C14.8,19.3,15,19.5,15.3,19.5z"/>
	<path fill="#62B0F0" d="M1.1,26.6c0.3,0,0.4-0.3,0.4-0.5c0-0.4-0.3-0.4-0.5-0.4c-0.3,0-0.4,0.2-0.4,0.5C0.6,26.4,0.8,26.6,1.1,26.6
		z"/>
	<path fill="#62B0F0" d="M15.3,12.4c0.3,0,0.5-0.1,0.6-0.4c0-0.3-0.1-0.5-0.4-0.6c-0.4,0-0.5,0.2-0.5,0.5
		C14.8,12.2,15,12.4,15.3,12.4z"/>
	<path fill="#62B0F0" d="M15.3,8.8c0.3,0,0.5-0.1,0.6-0.5c0-0.3-0.2-0.5-0.5-0.5c-0.3,0-0.5,0.2-0.5,0.5C14.8,8.6,14.9,8.8,15.3,8.8
		z"/>
	<path fill="#62B0F0" d="M15.3,1.6c0.3,0,0.4-0.2,0.4-0.4c0-0.2-0.1-0.4-0.4-0.4c-0.3,0-0.5,0.2-0.5,0.5C14.9,1.5,15.1,1.6,15.3,1.6
		z"/>
	<path fill="#62B0F0" d="M15.3,5.3c0.3,0,0.5-0.2,0.5-0.5c0-0.3-0.2-0.5-0.6-0.5c-0.3,0.1-0.4,0.3-0.4,0.6C14.8,5.1,15,5.3,15.3,5.3
		z"/>
	<path fill="#62B0F0" d="M20.6,17.7c0.3,0,0.5-0.1,0.6-0.4c0-0.3-0.2-0.5-0.5-0.6c-0.3,0-0.4,0.2-0.5,0.5
		C20.2,17.5,20.3,17.7,20.6,17.7z"/>
	<path fill="#62B0F0" d="M24.2,6.1c-0.3,0-0.4,0.2-0.5,0.4c0,0.3,0.1,0.4,0.4,0.4c0.3,0,0.5,0,0.6-0.4C24.7,6.2,24.5,6.1,24.2,6.1z"
		/>
	<path fill="#62B0F0" d="M24.3,10.6c0.3,0,0.5-0.2,0.5-0.6c-0.1-0.3-0.3-0.5-0.6-0.5c-0.3,0-0.6,0.2-0.5,0.6
		C23.7,10.5,24,10.6,24.3,10.6z"/>
	<path fill="#62B0F0" d="M22.5,4.3c-0.3,0-0.4,0.1-0.5,0.4c0,0.3,0.1,0.5,0.4,0.5c0.2,0,0.5-0.1,0.5-0.4C22.9,4.5,22.7,4.3,22.5,4.3
		z"/>
	<path fill="#62B0F0" d="M22.4,1.6c0.3,0,0.5-0.1,0.5-0.4c-0.1-0.2-0.2-0.5-0.5-0.5c-0.3,0-0.5,0.2-0.5,0.5
		C22,1.5,22.2,1.6,22.4,1.6z"/>
	<path fill="#62B0F0" d="M24.3,3.4c0.3,0,0.5-0.1,0.5-0.4c0-0.3-0.3-0.4-0.6-0.4c-0.2,0-0.4,0.1-0.4,0.4C23.7,3.2,23.9,3.4,24.3,3.4
		z"/>
	<path fill="#62B0F0" d="M26,8.7c0.3,0,0.5-0.1,0.5-0.4c0-0.3-0.3-0.4-0.5-0.5c-0.3,0-0.5,0.1-0.4,0.4C25.5,8.6,25.7,8.7,26,8.7z"/>
	<path fill="#62B0F0" d="M25.9,19.5c0.3,0,0.6-0.2,0.6-0.6c0-0.3-0.2-0.5-0.5-0.5c-0.3,0-0.5,0.2-0.6,0.6
		C25.4,19.4,25.6,19.6,25.9,19.5z"/>
	<path fill="#62B0F0" d="M25.9,4.3c-0.3,0-0.4,0.2-0.4,0.5c0,0.3,0.2,0.4,0.5,0.4c0.3,0,0.5-0.1,0.5-0.4C26.5,4.4,26.2,4.3,25.9,4.3
		z"/>
	<path fill="#62B0F0" d="M25.9,1.7c0.3,0,0.5-0.2,0.6-0.5c-0.1-0.3-0.3-0.5-0.6-0.5c-0.3,0-0.5,0.2-0.5,0.5
		C25.4,1.5,25.6,1.7,25.9,1.7z"/>
	<path fill="#62B0F0" d="M20.7,10.6c0.3-0.1,0.5-0.2,0.5-0.5c0-0.3-0.2-0.5-0.5-0.5c-0.3,0-0.5,0.2-0.4,0.5
		C20.2,10.4,20.3,10.6,20.7,10.6z"/>
	<path fill="#62B0F0" d="M20.6,3.5c0.3,0,0.5-0.1,0.6-0.5c0-0.3-0.2-0.5-0.5-0.5c-0.3,0-0.5,0.2-0.5,0.5C20.1,3.3,20.3,3.5,20.6,3.5
		z"/>
	<path fill="#62B0F0" d="M20.6,24.8c0.3,0,0.5-0.2,0.5-0.5c0-0.2-0.1-0.4-0.4-0.5c-0.3,0-0.5,0.2-0.5,0.5
		C20.1,24.6,20.3,24.8,20.6,24.8z"/>
	<path fill="#62B0F0" d="M20.6,21.3c0.3,0,0.4-0.2,0.5-0.5c0-0.3-0.2-0.4-0.5-0.4c-0.3,0-0.5,0-0.5,0.3C20.1,21,20.3,21.2,20.6,21.3
		z"/>
	<path fill="#62B0F0" d="M20.7,28.4c0.3,0,0.5-0.2,0.5-0.5c-0.1-0.3-0.2-0.5-0.5-0.5c-0.3,0-0.5,0.2-0.5,0.5
		C20.2,28.2,20.3,28.4,20.7,28.4z"/>
	<path fill="#62B0F0" d="M20.6,14.2c0.3,0,0.5-0.2,0.6-0.4c0-0.3-0.2-0.5-0.5-0.6c-0.3,0-0.4,0.2-0.4,0.5
		C20.2,13.9,20.3,14.2,20.6,14.2z"/>
	<path fill="#62B0F0" d="M22.4,12.3c0.3,0,0.6-0.2,0.6-0.5c0-0.3-0.3-0.5-0.6-0.4c-0.4,0-0.6,0.2-0.6,0.6
		C21.8,12.3,22.1,12.3,22.4,12.3z"/>
	<path fill="#62B0F0" d="M13.5,6C13.1,6,13,6.3,13,6.5c0,0.3,0.1,0.5,0.5,0.5C13.8,7,14,6.8,14,6.4C14,6.1,13.7,6,13.5,6z"/>
	<path fill="#62B0F0" d="M20.7,6.1c-0.3,0-0.5,0.2-0.5,0.5c0,0.3,0.2,0.4,0.5,0.4c0.2,0,0.5-0.1,0.5-0.4C21.2,6.2,21,6.1,20.7,6.1z"
		/>
	<path fill="#62B0F0" d="M22.4,8.8c0.3,0,0.4-0.3,0.4-0.5c0-0.3-0.1-0.4-0.4-0.5C22.1,7.9,22,8.1,22,8.4C22,8.7,22.1,8.8,22.4,8.8z"
		/>
	<path fill="#62B0F0" d="M6.4,7.1c0.3,0,0.5-0.2,0.5-0.5c0-0.3-0.2-0.4-0.5-0.5C6.1,6.1,6,6.2,5.9,6.5C5.9,6.8,6,7.1,6.4,7.1z"/>
	<path fill="#62B0F0" d="M6.5,31.9c0.3,0,0.5-0.2,0.5-0.5C6.9,31.1,6.6,31,6.3,31c-0.3,0-0.4,0.2-0.4,0.4C6,31.7,6.1,32,6.5,31.9z"
		/>
	<path fill="#62B0F0" d="M4.6,15c-0.3,0-0.5,0.2-0.5,0.5c0,0.3,0.2,0.5,0.5,0.5c0.3,0,0.5-0.2,0.5-0.5C5.1,15.2,5,14.9,4.6,15z"/>
	<path fill="#62B0F0" d="M4.6,11.4c-0.2,0-0.4,0.1-0.4,0.4c0,0.3,0.2,0.4,0.6,0.4c0.2,0,0.4-0.1,0.4-0.4C5.1,11.5,4.8,11.5,4.6,11.4
		z"/>
	<path fill="#62B0F0" d="M4.7,4.3c-0.3,0-0.4,0.1-0.5,0.4c0,0.3,0.1,0.5,0.5,0.5c0.3,0,0.5-0.1,0.5-0.4C5.1,4.5,5,4.3,4.7,4.3z"/>
	<path fill="#62B0F0" d="M4.7,1.6c0.2,0,0.4,0,0.4-0.4C5.1,1,5,0.7,4.7,0.7c-0.3,0-0.5,0.2-0.5,0.5C4.2,1.5,4.4,1.6,4.7,1.6z"/>
	<path fill="#62B0F0" d="M6.4,21.2c0.3,0,0.4-0.2,0.4-0.4c0-0.3-0.2-0.4-0.5-0.4c-0.2,0-0.4,0.2-0.4,0.4C6,21.1,6.2,21.3,6.4,21.2z"
		/>
	<path fill="#62B0F0" d="M6.4,10.5c0.3,0,0.5-0.1,0.5-0.4c0-0.3-0.2-0.5-0.5-0.5C6.1,9.6,6,9.8,6,10.1C6,10.4,6.2,10.5,6.4,10.5z"/>
	<path fill="#62B0F0" d="M6.5,3.4c0.3,0,0.4-0.1,0.4-0.4C6.9,2.7,6.7,2.5,6.4,2.5C6.1,2.5,6,2.7,6,2.9C6,3.3,6.2,3.4,6.5,3.4z"/>
	<path fill="#62B0F0" d="M26,15c-0.3,0-0.5,0.2-0.5,0.5c0,0.3,0.2,0.4,0.5,0.5c0.3,0,0.4-0.2,0.4-0.5C26.4,15.2,26.3,15,26,15z"/>
	<path fill="#62B0F0" d="M6.4,16.7c-0.3,0-0.4,0.2-0.4,0.5c0,0.3,0.2,0.4,0.5,0.4c0.3,0,0.5-0.1,0.5-0.4C6.9,16.9,6.7,16.7,6.4,16.7
		z"/>
	<path fill="#62B0F0" d="M1.1,15.9c0.3,0,0.5-0.1,0.5-0.5c0-0.3-0.2-0.5-0.5-0.5c-0.3,0-0.5,0.2-0.5,0.5C0.6,15.7,0.7,15.9,1.1,15.9
		z"/>
	<path fill="#62B0F0" d="M1.1,5.3c0.3,0,0.5-0.2,0.5-0.5C1.5,4.5,1.4,4.3,1.1,4.3c-0.3,0-0.5,0.2-0.5,0.5C0.6,5.1,0.8,5.3,1.1,5.3z"
		/>
	<path fill="#62B0F0" d="M1.1,1.6c0.3,0,0.5-0.1,0.5-0.5c0-0.3-0.3-0.5-0.5-0.5c-0.3,0-0.4,0.2-0.4,0.5C0.6,1.4,0.8,1.6,1.1,1.6z"/>
	<path fill="#62B0F0" d="M1.1,19.5c0.3,0,0.4-0.2,0.4-0.5c0-0.3-0.1-0.5-0.5-0.5c-0.3,0.1-0.5,0.3-0.5,0.6
		C0.5,19.4,0.8,19.5,1.1,19.5z"/>
	<path fill="#62B0F0" d="M4.6,26.6c0.3,0,0.6-0.2,0.6-0.5c0-0.3-0.3-0.4-0.5-0.4c-0.3,0-0.5,0.1-0.5,0.4C4.2,26.4,4.2,26.6,4.6,26.6
		z"/>
	<path fill="#62B0F0" d="M4.7,8.8C5,8.8,5.2,8.6,5.1,8.3c0-0.3-0.3-0.4-0.6-0.4c-0.3,0-0.4,0.2-0.4,0.5C4.2,8.6,4.4,8.8,4.7,8.8z"/>
	<path fill="#62B0F0" d="M2.9,9.6c-0.3,0-0.5,0.2-0.5,0.5c0,0.3,0.1,0.5,0.4,0.5c0.3,0,0.5-0.1,0.6-0.5C3.4,9.9,3.2,9.6,2.9,9.6z"/>
	<path fill="#62B0F0" d="M2.8,3.5c0.3,0,0.4-0.2,0.5-0.5c0-0.4-0.3-0.4-0.5-0.4C2.5,2.5,2.4,2.7,2.4,3C2.4,3.3,2.5,3.5,2.8,3.5z"/>
	<path fill="#62B0F0" d="M2.8,7.1c0.3,0,0.5-0.2,0.5-0.5c0-0.4-0.3-0.5-0.6-0.5c-0.3,0-0.5,0.1-0.6,0.5C2.3,6.9,2.5,7.1,2.8,7.1z"/>
	<path fill="#62B0F0" d="M8.1,7.7C7.8,7.7,7.7,8,7.7,8.2c0,0.3,0.2,0.5,0.5,0.5c0.3,0,0.5-0.2,0.5-0.4C8.7,7.9,8.4,7.8,8.1,7.7z"/>
	<path fill="#62B0F0" d="M6.3,14.1c0.2,0,0.4-0.1,0.5-0.3c0-0.3-0.1-0.5-0.4-0.5c-0.2,0-0.4,0-0.5,0.3C5.9,13.9,6.1,14.1,6.3,14.1z"
		/>
	<path fill="#62B0F0" d="M11.7,19.5c0.3,0,0.6-0.1,0.6-0.5c0-0.3-0.2-0.5-0.6-0.5c-0.3,0-0.6,0.2-0.6,0.5
		C11.1,19.4,11.3,19.5,11.7,19.5z"/>
	<path fill="#62B0F0" d="M10,9.6c-0.3,0-0.4,0.2-0.4,0.5c0,0.4,0.3,0.4,0.5,0.4c0.3,0,0.4-0.1,0.4-0.4C10.4,9.8,10.3,9.6,10,9.6z"/>
	<path fill="#62B0F0" d="M10,6.1C9.7,6,9.5,6.3,9.5,6.5c0,0.3,0.1,0.5,0.4,0.5c0.3,0,0.5-0.2,0.6-0.5C10.5,6.3,10.3,6.1,10,6.1z"/>
	<path fill="#62B0F0" d="M11.7,5.2c0.3,0,0.5-0.1,0.6-0.5c0-0.3-0.3-0.5-0.5-0.4c-0.3,0-0.5,0.2-0.5,0.5C11.2,5.1,11.4,5.2,11.7,5.2
		z"/>
	<path fill="#62B0F0" d="M11.8,1.7c0.3,0,0.5-0.2,0.5-0.5c0-0.3-0.2-0.5-0.5-0.5c-0.3,0-0.5,0.2-0.4,0.5C11.3,1.6,11.4,1.8,11.8,1.7
		z"/>
	<path fill="#62B0F0" d="M11.7,14.9c-0.3,0-0.4,0.2-0.4,0.4c0,0.3,0.1,0.6,0.4,0.6c0.3,0,0.5-0.2,0.5-0.5
		C12.2,15.2,12.1,14.9,11.7,14.9z"/>
	<path fill="#62B0F0" d="M11.7,11.4c-0.3,0-0.5,0.1-0.4,0.4c0,0.3,0.2,0.5,0.5,0.6c0.3-0.1,0.5-0.2,0.5-0.5
		C12.3,11.6,12,11.5,11.7,11.4z"/>
	<path fill="#62B0F0" d="M11.6,7.9c-0.3,0-0.4,0.2-0.4,0.5c0,0.3,0.2,0.5,0.5,0.5c0.3,0,0.5-0.2,0.5-0.5C12.2,8,12,7.9,11.6,7.9z"/>
	<path fill="#62B0F0" d="M9.9,3.5c0.3,0,0.5-0.1,0.6-0.5c0-0.3-0.2-0.5-0.5-0.5C9.7,2.4,9.5,2.7,9.5,3C9.5,3.3,9.6,3.5,9.9,3.5z"/>
	<path fill="#62B0F0" d="M8.1,16c0.3,0,0.6-0.2,0.6-0.5c0-0.3-0.2-0.5-0.5-0.5c-0.4,0-0.6,0.2-0.6,0.5C7.6,15.8,7.8,16,8.1,16z"/>
	<path fill="#62B0F0" d="M6.4,23.9c-0.2,0-0.4,0.1-0.4,0.3c0,0.3,0.2,0.5,0.5,0.5c0.3,0,0.5-0.1,0.5-0.4C6.9,24,6.7,23.9,6.4,23.9z"
		/>
	<path fill="#62B0F0" d="M8.2,12.4c0.3,0,0.4-0.2,0.5-0.5c0-0.3-0.2-0.4-0.5-0.4c-0.3,0-0.5,0.1-0.5,0.4C7.7,12.1,7.8,12.3,8.2,12.4
		z"/>
	<path fill="#62B0F0" d="M10,24.8c0.3,0,0.4-0.2,0.5-0.5c0-0.3-0.2-0.4-0.5-0.4c-0.3,0-0.5,0.1-0.5,0.4C9.5,24.6,9.6,24.8,10,24.8z"
		/>
	<path fill="#62B0F0" d="M6.5,27.4C6.2,27.4,6,27.5,6,27.8c0,0.3,0.2,0.4,0.4,0.4c0.3,0,0.5-0.1,0.5-0.4C6.9,27.6,6.8,27.4,6.5,27.4
		z"/>
	<path fill="#62B0F0" d="M8.1,18.6c-0.3,0-0.4,0.1-0.4,0.4c0,0.3,0.2,0.4,0.5,0.4c0.3,0,0.5-0.1,0.5-0.4C8.7,18.7,8.4,18.6,8.1,18.6
		z"/>
	<path fill="#62B0F0" d="M13.5,3.5c0.3,0,0.4-0.2,0.4-0.5c0-0.3-0.2-0.5-0.5-0.5c-0.3,0-0.5,0.1-0.5,0.5C13,3.3,13.2,3.5,13.5,3.5z"
		/>
	<path fill="#62B0F0" d="M8.2,4.3c-0.3,0-0.5,0.2-0.5,0.5c0,0.3,0.1,0.5,0.4,0.5c0.4,0,0.4-0.2,0.5-0.5C8.6,4.5,8.5,4.3,8.2,4.3z"/>
	<path fill="#62B0F0" d="M8.2,1.7c0.3,0,0.4-0.2,0.4-0.5c0-0.2-0.1-0.5-0.4-0.5c-0.3,0-0.5,0.2-0.5,0.5C7.7,1.5,7.9,1.7,8.2,1.7z"/>
	<path fill="#62B0F0" d="M14.9,22.5c0,0.3,0.2,0.4,0.5,0.4c0.3,0,0.4-0.1,0.5-0.4c-0.1-0.3-0.2-0.5-0.5-0.4
		C15,22.1,14.9,22.2,14.9,22.5z"/>
	<path fill="#62B0F0" d="M13.5,27.4c-0.3,0-0.4,0.2-0.4,0.4c0,0.3,0.2,0.5,0.5,0.4c0.3,0,0.4-0.1,0.4-0.4
		C14,27.6,13.8,27.4,13.5,27.4z"/>
	<path fill="#62B0F0" d="M13.5,17.7c0.2,0,0.3-0.2,0.4-0.4c0-0.3-0.2-0.4-0.5-0.4c-0.2,0-0.4,0.2-0.4,0.4
		C13.1,17.5,13.3,17.7,13.5,17.7z"/>
	<path fill="#62B0F0" d="M14,13.6c0-0.3-0.3-0.5-0.5-0.5c-0.3,0-0.4,0.2-0.4,0.5c0,0.3,0.1,0.5,0.5,0.5C13.8,14,14.1,13.9,14,13.6z"
		/>
	<path fill="#62B0F0" d="M13.5,24.8c0.3,0,0.4-0.2,0.5-0.5c0-0.3-0.2-0.4-0.5-0.5c-0.3,0-0.4,0.2-0.4,0.4
		C13,24.6,13.1,24.8,13.5,24.8z"/>
	<path fill="#62B0F0" d="M13.5,31c-0.3,0-0.5,0.1-0.5,0.4c0,0.3,0.2,0.4,0.5,0.4c0.3,0,0.5-0.1,0.5-0.4C14,31.1,13.8,31.1,13.5,31z"
		/>
	<path fill="#62B0F0" d="M13.5,21.1c0.3,0,0.5-0.1,0.5-0.4c0.1-0.3-0.2-0.4-0.5-0.5c-0.3-0.1-0.4,0.1-0.5,0.4
		C13.1,21,13.2,21.1,13.5,21.1z"/>
	<path fill="#62B0F0" d="M10,16.8c-0.2,0-0.4,0.1-0.4,0.3c0,0.3,0.1,0.5,0.5,0.5c0.3,0,0.5-0.1,0.5-0.4C10.5,16.9,10.2,16.8,10,16.8
		z"/>
	<path fill="#62B0F0" d="M11.7,29.2c-0.3,0.1-0.5,0.3-0.5,0.6c0,0.3,0.2,0.4,0.4,0.4c0.3,0,0.4-0.2,0.4-0.5
		C12.1,29.4,12,29.2,11.7,29.2z"/>
	<path fill="#62B0F0" d="M11.7,22.1c-0.3,0-0.5,0.1-0.5,0.4c0,0.3,0.2,0.4,0.5,0.4c0.3,0,0.5-0.1,0.5-0.4
		C12.3,22.2,12,22.2,11.7,22.1z"/>
	<path fill="#62B0F0" d="M12.1,26.2c0-0.3-0.1-0.4-0.4-0.5c-0.2,0-0.4,0.1-0.4,0.4c0,0.3,0.2,0.5,0.4,0.5
		C12,26.6,12.1,26.4,12.1,26.2z"/>
	<path fill="#62B0F0" d="M10,13.2c-0.3,0-0.4,0.2-0.4,0.5c0,0.4,0.3,0.4,0.5,0.4c0.3,0,0.4-0.1,0.4-0.4C10.4,13.3,10.3,13.1,10,13.2
		z"/>
	<path fill="#62B0F0" d="M18.9,29.2c-0.3,0-0.5,0.1-0.5,0.4c0,0.3,0.2,0.6,0.5,0.6c0.3,0,0.4-0.2,0.5-0.4
		C19.4,29.4,19.1,29.3,18.9,29.2z"/>
	<path fill="#62B0F0" d="M18.4,26.1c0,0.3,0.1,0.5,0.4,0.6c0.3,0,0.5-0.2,0.6-0.5c0-0.3-0.2-0.6-0.5-0.6
		C18.5,25.6,18.4,25.8,18.4,26.1z"/>
	<path fill="#62B0F0" d="M18.8,22c-0.3,0.1-0.4,0.3-0.4,0.6c0,0.3,0.1,0.6,0.5,0.5c0.3,0,0.5-0.3,0.5-0.6C19.3,22.1,19.1,22,18.8,22
		z"/>
	<path fill="#62B0F0" d="M15.3,29.2c-0.3,0-0.4,0.2-0.4,0.5c0,0.3,0.2,0.4,0.5,0.4c0.3,0,0.4-0.1,0.4-0.4
		C15.7,29.3,15.6,29.1,15.3,29.2z"/>
	<path fill="#62B0F0" d="M18.8,18.5c-0.3,0-0.4,0.2-0.4,0.4c0,0.3,0.2,0.5,0.6,0.5c0.3,0,0.4-0.2,0.4-0.5
		C19.4,18.7,19.1,18.6,18.8,18.5z"/>
	<path fill="#62B0F0" d="M17,27.4c-0.3,0-0.4,0.2-0.4,0.4c0,0.3,0.2,0.5,0.6,0.5c0.3,0,0.4-0.2,0.4-0.5C17.6,27.6,17.3,27.5,17,27.4
		z"/>
	<path fill="#62B0F0" d="M18.8,16c0.3,0,0.6-0.2,0.6-0.5c0-0.3-0.2-0.5-0.5-0.5c-0.3,0-0.6,0.2-0.6,0.5C18.3,15.8,18.5,16,18.8,16z"
		/>
	<path fill="#62B0F0" d="M22.4,29.1c-0.3,0.1-0.4,0.3-0.4,0.6c0,0.3,0.2,0.5,0.5,0.5c0.3,0,0.5-0.2,0.5-0.5
		C22.9,29.3,22.7,29.2,22.4,29.1z"/>
	<path fill="#62B0F0" d="M17.1,24.7c0.2,0,0.5-0.1,0.5-0.4c0-0.3-0.2-0.5-0.5-0.5c-0.3,0-0.4,0.1-0.5,0.4
		C16.6,24.6,16.8,24.7,17.1,24.7z"/>
	<path fill="#62B0F0" d="M17,31c-0.3,0-0.4,0.1-0.4,0.4c0,0.3,0.2,0.6,0.5,0.5c0.3,0,0.4-0.2,0.5-0.4C17.6,31.1,17.4,31.1,17,31z"/>
	<path fill="#62B0F0" d="M2.9,31c-0.3,0-0.5,0.2-0.5,0.5c0,0.3,0.2,0.3,0.4,0.4c0.3,0,0.4-0.2,0.4-0.4C3.3,31.2,3.1,31,2.9,31z"/>
	<path fill="#62B0F0" d="M2.9,20.3c-0.3,0-0.5,0.2-0.5,0.5c0,0.2,0.1,0.4,0.4,0.4c0.3,0,0.4-0.1,0.5-0.4C3.3,20.5,3.2,20.3,2.9,20.3
		z"/>
	<path fill="#62B0F0" d="M2.9,16.7c-0.3-0.1-0.5,0.1-0.5,0.4c0,0.3,0.1,0.5,0.4,0.6c0.3,0,0.5-0.2,0.6-0.5C3.4,17,3.2,16.8,2.9,16.7
		z"/>
	<path fill="#62B0F0" d="M2.9,27.4c-0.3,0-0.4,0.2-0.4,0.5c0,0.3,0.2,0.4,0.5,0.4c0.3,0,0.5-0.1,0.5-0.4C3.4,27.6,3.2,27.4,2.9,27.4
		z"/>
	<path fill="#62B0F0" d="M1.1,23.1c0.3,0,0.5-0.2,0.5-0.5C1.5,22.3,1.4,22,1,22c-0.3,0-0.4,0.3-0.4,0.6C0.6,22.9,0.7,23.1,1.1,23.1z
		"/>
	<path fill="#62B0F0" d="M26,11.4c-0.3,0-0.5,0.2-0.5,0.5c0,0.3,0.2,0.5,0.5,0.5c0.3,0,0.5-0.2,0.5-0.5C26.5,11.6,26.3,11.4,26,11.4
		z"/>
	<path fill="#62B0F0" d="M1.2,29.2c-0.3-0.1-0.5,0.1-0.6,0.4C0.6,29.9,0.8,30,1,30c0.2,0,0.5,0,0.6-0.4C1.6,29.5,1.5,29.3,1.2,29.2z
		"/>
	<path fill="#62B0F0" d="M2.8,23.9c-0.2,0-0.4,0.1-0.4,0.3c0,0.3,0.2,0.5,0.5,0.5c0.2,0,0.4-0.1,0.4-0.4C3.4,24,3.1,23.9,2.8,23.9z"
		/>
	<path fill="#62B0F0" d="M1,7.9c-0.3,0-0.4,0.2-0.4,0.5c0,0.3,0.3,0.4,0.5,0.4c0.3,0,0.4-0.1,0.5-0.4C1.5,8,1.3,7.9,1,7.9z"/>
	<path fill="#62B0F0" d="M10,31c-0.3,0-0.5,0.2-0.5,0.5c0,0.2,0.1,0.4,0.4,0.4c0.3,0,0.4-0.1,0.5-0.4C10.4,31.2,10.3,31,10,31z"/>
	<path fill="#62B0F0" d="M8.3,26.5c0.3,0,0.5-0.1,0.5-0.4c0-0.3-0.3-0.4-0.6-0.4c-0.2,0-0.4,0.1-0.4,0.4C7.7,26.4,8,26.5,8.3,26.5z"
		/>
	<path fill="#62B0F0" d="M8.3,22.9c0.3,0,0.5-0.1,0.5-0.4c0-0.3-0.3-0.4-0.6-0.4c-0.2,0-0.4,0.1-0.4,0.4C7.7,22.8,8,22.9,8.3,22.9z"
		/>
	<path fill="#62B0F0" d="M9.9,20.3c-0.3,0-0.4,0.1-0.4,0.4c0,0.3,0.2,0.4,0.5,0.4c0.3,0,0.5-0.1,0.5-0.4
		C10.5,20.4,10.2,20.4,9.9,20.3z"/>
	<path fill="#62B0F0" d="M10,27.5c-0.3,0-0.5,0.1-0.4,0.4c0,0.3,0.2,0.4,0.5,0.4c0.3,0,0.4-0.1,0.5-0.4C10.4,27.5,10.2,27.5,10,27.5
		z"/>
	<path fill="#62B0F0" d="M5.2,19c-0.1-0.3-0.2-0.5-0.5-0.4c-0.3,0-0.4,0.2-0.4,0.5c0,0.3,0.2,0.4,0.5,0.4C4.9,19.4,5.1,19.3,5.2,19z
		"/>
	<path fill="#62B0F0" d="M4.7,22.1c-0.3,0-0.5,0.2-0.5,0.5c0,0.3,0.1,0.5,0.4,0.5c0.3,0,0.5-0.1,0.6-0.5C5.1,22.3,5,22.1,4.7,22.1z"
		/>
	<path fill="#62B0F0" d="M4.6,29.2c-0.2,0-0.4,0.1-0.4,0.3c0,0.3,0.2,0.5,0.5,0.5c0.3,0,0.5-0.1,0.5-0.4C5.1,29.3,4.9,29.3,4.6,29.2
		z"/>
	<path fill="#62B0F0" d="M8.1,29.2c-0.2,0-0.4,0.1-0.4,0.4C7.7,29.9,8,30,8.3,30c0.3,0,0.5-0.1,0.4-0.4C8.7,29.3,8.4,29.2,8.1,29.2z
		"/>
	<path fill="#62B0F0" d="M2.9,13.2c-0.3,0-0.5,0.2-0.5,0.5c0,0.3,0.2,0.5,0.5,0.5c0.3,0,0.5-0.2,0.5-0.5C3.3,13.4,3.2,13.2,2.9,13.2
		z"/>
	<path fill="#62B0F0" d="M1.1,11.4c-0.3,0-0.4,0.2-0.5,0.4c0,0.3,0.2,0.5,0.5,0.5c0.3,0,0.5-0.1,0.5-0.4C1.5,11.6,1.4,11.4,1.1,11.4
		z"/>
	<path fill="#62B0F0" d="M31.4,23.8c-0.3,0-0.5,0.1-0.6,0.4c0,0.3,0.2,0.4,0.4,0.4c0.3,0,0.5-0.1,0.5-0.4
		C31.8,24.1,31.7,23.9,31.4,23.8z"/>
	<path fill="#62B0F0" d="M29.5,29.2c-0.3,0-0.4,0.2-0.4,0.5c0,0.3,0.2,0.4,0.5,0.4c0.3,0,0.4-0.1,0.4-0.4
		C30,29.3,29.8,29.2,29.5,29.2z"/>
	<path fill="#62B0F0" d="M31.3,27.4c-0.3,0-0.4,0.2-0.4,0.5c0,0.3,0.1,0.5,0.4,0.5c0.3,0,0.5-0.2,0.5-0.5
		C31.8,27.6,31.6,27.4,31.3,27.4z"/>
	<path fill="#62B0F0" d="M29.6,15.9c0.3,0,0.5-0.2,0.5-0.5c0-0.3-0.2-0.5-0.5-0.5c-0.3,0-0.5,0.3-0.4,0.5
		C29.1,15.8,29.2,16,29.6,15.9z"/>
	<path fill="#62B0F0" d="M29.5,19.5c0.3,0,0.5-0.2,0.5-0.5c-0.1-0.3-0.2-0.5-0.5-0.5c-0.3,0-0.5,0.2-0.5,0.5
		C29.1,19.3,29.2,19.5,29.5,19.5z"/>
	<path fill="#62B0F0" d="M31.3,20.3c-0.3,0-0.4,0.2-0.4,0.5c0,0.3,0.2,0.6,0.6,0.6c0.3,0,0.4-0.2,0.4-0.5
		C31.8,20.5,31.6,20.3,31.3,20.3z"/>
	<path fill="#62B0F0" d="M29.5,12.3c0.3,0,0.5-0.1,0.5-0.4c0-0.3-0.3-0.4-0.5-0.5c-0.3,0-0.5,0.1-0.4,0.4
		C29.1,12.1,29.3,12.3,29.5,12.3z"/>
	<path fill="#62B0F0" d="M29.5,5.1c0.3,0,0.4-0.2,0.4-0.4c0-0.2-0.1-0.4-0.3-0.4c-0.3,0-0.5,0.2-0.5,0.5C29.1,5,29.3,5.1,29.5,5.1z"
		/>
	<path fill="#62B0F0" d="M29.5,22.9c0.3,0,0.5-0.1,0.5-0.4c0-0.3-0.2-0.5-0.4-0.5c-0.3,0-0.5,0.1-0.6,0.4
		C29.1,22.8,29.3,22.9,29.5,22.9z"/>
	<path fill="#62B0F0" d="M31.3,6.9c0.3,0,0.5-0.1,0.5-0.4c0-0.3-0.2-0.5-0.5-0.5c-0.3,0-0.4,0.1-0.5,0.4C30.8,6.8,31,6.9,31.3,6.9z"
		/>
	<path fill="#62B0F0" d="M30.9,10.1c0,0.3,0.2,0.4,0.5,0.4c0.3,0,0.5-0.1,0.5-0.4c-0.1-0.3-0.2-0.5-0.6-0.5
		C31,9.6,30.8,9.8,30.9,10.1z"/>
	<path fill="#62B0F0" d="M29.6,25.6c-0.3,0-0.5,0.2-0.5,0.5c0,0.3,0.1,0.5,0.4,0.5c0.3,0,0.6-0.1,0.6-0.5
		C30.1,25.8,29.9,25.6,29.6,25.6z"/>
	<path fill="#62B0F0" d="M27.8,3.5c0.3,0,0.5-0.2,0.5-0.5c-0.1-0.4-0.3-0.5-0.6-0.5c-0.3,0-0.5,0.1-0.5,0.5
		C27.2,3.3,27.5,3.5,27.8,3.5z"/>
	<path fill="#62B0F0" d="M31.2,32c0.4,0,0.6-0.2,0.6-0.6c0-0.3-0.2-0.5-0.5-0.5c-0.4,0-0.6,0.2-0.6,0.6C30.7,31.8,30.9,32,31.2,32z"
		/>
	<path fill="#62B0F0" d="M29.5,1.7c0.3,0,0.5-0.2,0.6-0.6c0-0.4-0.3-0.5-0.6-0.5c-0.4,0-0.4,0.3-0.4,0.5C29,1.5,29.2,1.7,29.5,1.7z"
		/>
	<path fill="#62B0F0" d="M29.6,8.7c0.3,0,0.5-0.1,0.5-0.4c0-0.3-0.3-0.4-0.5-0.5c-0.3,0-0.4,0.1-0.4,0.4C29.1,8.6,29.3,8.7,29.6,8.7
		z"/>
	<path fill="#62B0F0" d="M31.4,14c0.3,0,0.4-0.2,0.4-0.5c-0.1-0.2-0.2-0.4-0.5-0.4c-0.3,0-0.5,0.2-0.5,0.5
		C30.9,14,31.2,14.1,31.4,14z"/>
	<path fill="#62B0F0" d="M31.3,17.7c0.3,0,0.5-0.2,0.6-0.5c0-0.3-0.1-0.5-0.4-0.6c-0.3,0-0.5,0.1-0.5,0.4
		C30.8,17.5,30.9,17.7,31.3,17.7z"/>
	<path fill="#62B0F0" d="M31.3,3.5c0.3,0,0.5-0.2,0.6-0.5c0-0.3-0.2-0.5-0.5-0.5c-0.3,0-0.5,0.2-0.5,0.5C30.8,3.3,30.9,3.5,31.3,3.5
		z"/>
	<path fill="#62B0F0" d="M24.2,30.9c-0.3,0-0.6,0.1-0.6,0.5c0,0.4,0.3,0.5,0.6,0.5c0.3,0,0.5-0.1,0.6-0.4
		C24.8,31.2,24.5,31,24.2,30.9z"/>
	<path fill="#62B0F0" d="M24.2,16.7c-0.3,0-0.4,0.2-0.4,0.5c0,0.4,0.3,0.4,0.5,0.4c0.3,0,0.4-0.1,0.4-0.4
		C24.7,16.9,24.5,16.7,24.2,16.7z"/>
	<path fill="#62B0F0" d="M24.1,13.1c-0.3,0.1-0.5,0.3-0.5,0.6c0,0.3,0.2,0.5,0.6,0.4c0.3,0,0.5-0.2,0.5-0.5
		C24.7,13.3,24.5,13.2,24.1,13.1z"/>
	<path fill="#62B0F0" d="M24.2,28.4c0.3,0,0.5-0.1,0.6-0.5c0-0.3-0.2-0.5-0.5-0.5c-0.3,0-0.5,0.2-0.5,0.5
		C23.7,28.1,23.8,28.4,24.2,28.4z"/>
	<path fill="#62B0F0" d="M24.7,24.4c0-0.3-0.2-0.5-0.5-0.5c-0.3,0-0.5,0.2-0.5,0.5c0,0.3,0.2,0.4,0.5,0.4
		C24.5,24.7,24.7,24.6,24.7,24.4z"/>
	<path fill="#62B0F0" d="M22.4,16c0.3,0,0.5-0.2,0.6-0.5c0-0.4-0.2-0.5-0.6-0.6c-0.3,0-0.5,0.2-0.5,0.6C21.8,15.8,22,16,22.4,16z"/>
	<path fill="#62B0F0" d="M22.4,25.6c-0.3,0-0.4,0.2-0.4,0.5c0,0.3,0.1,0.5,0.5,0.5c0.3,0,0.5-0.2,0.5-0.5
		C22.9,25.8,22.7,25.6,22.4,25.6z"/>
	<path fill="#62B0F0" d="M24.2,20.2c-0.4,0-0.5,0.3-0.5,0.6c0,0.3,0.1,0.5,0.4,0.5c0.3,0,0.5-0.2,0.6-0.5
		C24.7,20.4,24.6,20.2,24.2,20.2z"/>
	<path fill="#62B0F0" d="M22.5,22.1c-0.3,0-0.5,0.2-0.5,0.5c0,0.3,0.1,0.5,0.4,0.5c0.3,0,0.5-0.1,0.6-0.5
		C22.9,22.3,22.8,22.1,22.5,22.1z"/>
	<path fill="#62B0F0" d="M22.4,18.6c-0.3,0-0.5,0.1-0.5,0.4c0,0.3,0.1,0.5,0.5,0.6c0.3,0,0.5-0.2,0.5-0.5
		C23,18.7,22.7,18.6,22.4,18.6z"/>
	<path fill="#62B0F0" d="M27.7,28.4c0.3,0,0.5-0.2,0.5-0.5c0-0.3-0.2-0.5-0.5-0.5c-0.3,0-0.5,0.2-0.5,0.5
		C27.3,28.2,27.4,28.4,27.7,28.4z"/>
	<path fill="#62B0F0" d="M28.3,24.3c0-0.3-0.2-0.5-0.5-0.5c-0.3,0-0.5,0.2-0.5,0.5c0,0.3,0.2,0.5,0.5,0.5
		C28.1,24.8,28.3,24.7,28.3,24.3z"/>
	<path fill="#62B0F0" d="M27.7,17.7c0.3,0,0.5-0.1,0.6-0.5c0-0.3-0.2-0.5-0.5-0.5c-0.3,0-0.5,0.2-0.5,0.5
		C27.3,17.5,27.4,17.7,27.7,17.7z"/>
	<path fill="#62B0F0" d="M27.8,20.3c-0.3,0-0.4,0.2-0.5,0.4c0,0.3,0.1,0.4,0.4,0.4c0.3,0,0.5-0.1,0.6-0.4
		C28.3,20.5,28.1,20.3,27.8,20.3z"/>
	<path fill="#62B0F0" d="M27.8,30.9c-0.3,0-0.5,0.2-0.5,0.5c0,0.3,0.1,0.5,0.5,0.5c0.3,0,0.5-0.2,0.5-0.5
		C28.3,31.2,28.1,31,27.8,30.9z"/>
	<path fill="#62B0F0" d="M27.8,13.2c-0.3,0-0.5,0.2-0.5,0.5c0,0.3,0.1,0.5,0.5,0.5c0.3,0,0.5-0.2,0.5-0.5
		C28.2,13.4,28.1,13.2,27.8,13.2z"/>
	<path fill="#62B0F0" d="M27.7,9.6c-0.3,0-0.4,0.2-0.4,0.5c0,0.3,0.2,0.4,0.5,0.4c0.3,0,0.5-0.1,0.5-0.4C28.2,9.8,28,9.6,27.7,9.6z"
		/>
	<path fill="#62B0F0" d="M27.7,6.1c-0.3,0-0.4,0.2-0.4,0.5c0,0.3,0.1,0.6,0.5,0.5c0.3,0,0.5-0.2,0.5-0.5C28.2,6.2,28,6.1,27.7,6.1z"
		/>
	<path fill="#62B0F0" d="M26,25.6c-0.3,0-0.5,0.2-0.5,0.5c0,0.3,0.2,0.5,0.5,0.5c0.3,0,0.5-0.2,0.5-0.5C26.4,25.8,26.3,25.6,26,25.6
		z"/>
	<path fill="#62B0F0" d="M25.9,29.1c-0.3,0-0.5,0.2-0.5,0.6c0,0.3,0.2,0.5,0.5,0.5c0.3,0,0.6-0.1,0.6-0.5
		C26.5,29.4,26.3,29.2,25.9,29.1z"/>
</g>
</svg>
