<?xml version="1.0" encoding="utf-8"?>
<!-- Generator: Adobe Illustrator 17.1.0, SVG Export Plug-In . SVG Version: 6.00 Build 0)  -->
<!DOCTYPE svg PUBLIC "-//W3C//DTD SVG 1.1//EN" "http://www.w3.org/Graphics/SVG/1.1/DTD/svg11.dtd">
<svg version="1.1" id="Layer_1" xmlns="http://www.w3.org/2000/svg" xmlns:xlink="http://www.w3.org/1999/xlink" x="0px" y="0px"
	 width="12px" height="12px" viewBox="0 0 12 12" enable-background="new 0 0 12 12" xml:space="preserve">
<g>
	<path d="M8.3,10.7l-2.1-3l-2.1,3c-0.3,0.4-0.6,0.7-0.8,0.9s-0.5,0.3-0.8,0.3c-0.4,0-0.7-0.1-0.9-0.3S1.2,11,1.2,10.7
		c0-0.3,0.2-0.7,0.6-1.3l2.6-3.7L2.1,2.7c-0.4-0.5-0.6-1-0.6-1.3c0-0.3,0.1-0.5,0.4-0.8s0.5-0.3,0.9-0.3c0.3,0,0.6,0.1,0.8,0.3
		S4.1,1,4.4,1.4l1.8,2.5l1.8-2.5C8.4,1,8.6,0.7,8.8,0.5s0.5-0.3,0.8-0.3c0.4,0,0.7,0.1,0.9,0.3S11,1,11,1.3c0,0.2-0.1,0.4-0.2,0.6
		c-0.1,0.2-0.3,0.4-0.5,0.7L8.1,5.7l2.6,3.7c0.4,0.6,0.6,1,0.6,1.3c0,0.3-0.1,0.6-0.4,0.8s-0.6,0.3-0.9,0.3c-0.3,0-0.6-0.1-0.8-0.3
		S8.6,11.1,8.3,10.7z"/>
</g>
</svg>
