<?xml version="1.0" encoding="utf-8"?>
<!-- Generator: Adobe Illustrator 17.1.0, SVG Export Plug-In . SVG Version: 6.00 Build 0)  -->
<!DOCTYPE svg PUBLIC "-//W3C//DTD SVG 1.1//EN" "http://www.w3.org/Graphics/SVG/1.1/DTD/svg11.dtd">
<svg version="1.1" xmlns="http://www.w3.org/2000/svg" xmlns:xlink="http://www.w3.org/1999/xlink" x="0px" y="0px" width="32px"
	 height="32px" viewBox="0 0 32 32" enable-background="new 0 0 32 32" xml:space="preserve">
<g id="dots" display="none">
</g>
<g id="waves" display="none">
</g>
<g id="circles" display="none">
</g>
<g id="sketchy" display="none">
</g>
<g id="line">
	<g>
		<polygon points="3.1,32 32.4,2.7 32.4,1.9 2.3,32 		"/>
		<polygon points="5.3,32 32.4,5 32.4,4.2 4.6,32 		"/>
		<polygon points="7.6,32 32.4,7.3 32.4,6.5 6.8,32 		"/>
		<polygon points="9.9,32 32.4,9.5 32.4,8.7 9.1,32 		"/>
		<polygon points="12.2,32 32.4,11.8 32.4,11 11.4,32 		"/>
		<polygon points="14.5,32 32.4,14.1 32.4,13.3 13.7,32 		"/>
		<polygon points="16.8,32 32.4,16.4 32.4,15.6 16,32 		"/>
		<polygon points="19.1,32 32.4,18.7 32.4,17.9 18.3,32 		"/>
		<polygon points="21.3,32 32.4,21 32.4,20.2 20.6,32 		"/>
		<polygon points="23.6,32 32.4,23.3 32.4,22.5 22.8,32 		"/>
		<polygon points="25.9,32 32.4,25.5 32.4,24.7 25.1,32 		"/>
		<polygon points="28.2,32 32.4,27.8 32.4,27 27.4,32 		"/>
		<polygon points="30.5,32 32.4,30.1 32.4,29.3 29.7,32 		"/>
		<polygon points="32.4,32 32.4,31.6 32,32 		"/>
		<polygon points="3.1,0 2.3,0 1.3,0.9 0.4,1.9 0.4,2.7 1.7,1.3 		"/>
		<polygon points="5.3,0 4.6,0 2.5,2.1 0.4,4.2 0.4,5 2.9,2.5 		"/>
		<polygon points="7.6,0 6.8,0 3.6,3.2 0.4,6.5 0.4,7.3 4,3.6 		"/>
		<polygon points="9.9,0 9.1,0 4.7,4.4 0.4,8.7 0.4,9.5 5.1,4.8 		"/>
		<polygon points="12.2,0 11.4,0 5.9,5.5 0.4,11 0.4,11.8 6.3,5.9 		"/>
		<polygon points="14.5,0 13.7,0 7,6.7 0.4,13.3 0.4,14.1 7.4,7.1 		"/>
		<polygon points="16.8,0 16,0 8.2,7.8 0.4,15.6 0.4,16.4 8.6,8.2 		"/>
		<polygon points="19.1,0 18.3,0 9.3,8.9 0.4,17.9 0.4,18.7 9.7,9.3 		"/>
		<polygon points="21.3,0 20.6,0 10.5,10.1 0.4,20.2 0.4,21 10.9,10.5 		"/>
		<polygon points="23.6,0 22.8,0 11.6,11.2 0.4,22.5 0.4,23.3 12,11.6 		"/>
		<polygon points="25.9,0 25.1,0 12.7,12.4 0.4,24.7 0.4,25.5 13.1,12.8 		"/>
		<polygon points="28.2,0 27.4,0 13.9,13.5 0.4,27 0.4,27.8 14.3,13.9 		"/>
		<polygon points="30.5,0 29.7,0 15,14.7 0.4,29.3 0.4,30.1 15.4,15.1 		"/>
		<polygon points="32,0 16.2,15.8 0.4,31.6 0.4,32 0.8,32 16.6,16.2 32.4,0.4 32.4,0 		"/>
		<polygon points="0.4,0 0.4,0.4 0.8,0 		"/>
	</g>
</g>
<g id="digital" display="none">
</g>
<g id="triangles" display="none">
</g>
<g id="distressed" display="none">
</g>
</svg>
